<svg id="e84929df-41ab-4071-afff-4160fbbebbe2" data-name="Layer 1" xmlns="http://www.w3.org/2000/svg" viewBox="0 0 174.35 174.1"><title>logo only</title><g id="b899f674-7757-401d-bb4f-85463d0b3411" data-name="f74c4993-a78f-4bfe-964f-987b86dbdcd8"><g id="bce782de-2e32-4ade-ab42-faf443aaf580" data-name="bcd6d852-e3f0-40e2-b9cf-d481bc182a29"><g id="ac7ac269-9df6-46eb-8ad9-ed858902809a" data-name="af7586c3-238e-40e2-bf55-9d2f9ca20495"><g id="b3c53520-3eca-4c52-8c0d-e2c4742df706" data-name="bf742c58-c060-4895-8cc7-24ce3dd4c2a2"><path d="M171.76,97.8a2.55,2.55,0,0,1-2.55-2.55h0V78.88a2.55,2.55,0,0,1,2.55-2.55h0a2.55,2.55,0,0,1,2.55,2.55h0V95.25a2.55,2.55,0,0,1-2.55,2.55Z" transform="translate(0.04)" fill="#5ff9f5"/><path d="M161.2,114.44a2.56,2.56,0,0,1-2.55-2.56V62.24a2.55,2.55,0,0,1,2.55-2.55h0a2.55,2.55,0,0,1,2.55,2.55h0v49.65a2.55,2.55,0,0,1-2.55,2.55Z" transform="translate(0.04)" fill="#5ff9f5"/><path d="M150.63,108.88a2.55,2.55,0,0,1-2.55-2.55h0V67.79a2.55,2.55,0,0,1,2.55-2.55h0a2.55,2.55,0,0,1,2.55,2.55h0v38.54a2.55,2.55,0,0,1-2.55,2.55Z" transform="translate(0.04)" fill="#5ff9f5"/><path d="M140.07,126a2.55,2.55,0,0,1-2.56-2.54h0V50.67a2.56,2.56,0,0,1,5.11,0h0v72.75a2.55,2.55,0,0,1-2.55,2.55Z" transform="translate(0.04)" fill="#5ff9f5"/><path d="M129.51,136.33a2.55,2.55,0,0,1-2.55-2.55h0V40.34a2.55,2.55,0,0,1,2.55-2.55h0a2.55,2.55,0,0,1,2.55,2.55h0v93.44a2.55,2.55,0,0,1-2.55,2.55Z" transform="translate(0.04)" fill="#5ff9f5"/><path d="M118.94,158.66a2.55,2.55,0,0,1-2.55-2.5h0V18a2.55,2.55,0,0,1,2.55-2.55h0A2.55,2.55,0,0,1,121.51,18V156.1a2.55,2.55,0,0,1-2.54,2.56h0Z" transform="translate(0.04)" fill="#5ff9f5"/><path d="M108.37,151.68a2.55,2.55,0,0,1-2.55-2.52V25a2.55,2.55,0,0,1,2.55-2.55h0A2.55,2.55,0,0,1,110.92,25h0V149.1a2.55,2.55,0,0,1-2.52,2.58h0Z" transform="translate(0.04)" fill="#5ff9f5"/><path d="M97.81,166.1a2.55,2.55,0,0,1-2.55-2.55h0v-153A2.55,2.55,0,0,1,97.81,8h0a2.55,2.55,0,0,1,2.55,2.55h0v153A2.55,2.55,0,0,1,97.81,166.1Z" transform="translate(0.04)" fill="#5ff9f5"/><path d="M2.51,97.8A2.55,2.55,0,0,1,0,95.25H0V78.88a2.55,2.55,0,0,1,2.55-2.55h0a2.55,2.55,0,0,1,2.55,2.55h0V95.25A2.55,2.55,0,0,1,2.51,97.8Z" transform="translate(0.04)" fill="#5ff9f5"/><path d="M13.12,114.44a2.56,2.56,0,0,1-2.55-2.56V62.24a2.55,2.55,0,0,1,2.55-2.55h0a2.55,2.55,0,0,1,2.55,2.55h0v49.65a2.55,2.55,0,0,1-2.55,2.55Z" transform="translate(0.04)" fill="#5ff9f5"/><path d="M23.69,108.88a2.55,2.55,0,0,1-2.55-2.55h0V67.79a2.55,2.55,0,0,1,2.55-2.55h0a2.55,2.55,0,0,1,2.55,2.55h0v38.54a2.55,2.55,0,0,1-2.55,2.55Z" transform="translate(0.04)" fill="#5ff9f5"/><path d="M34.25,126a2.55,2.55,0,0,1-2.55-2.55h0V50.67a2.55,2.55,0,0,1,5.1,0h0v72.75A2.55,2.55,0,0,1,34.25,126Z" transform="translate(0.04)" fill="#5ff9f5"/><path d="M44.81,136.33a2.55,2.55,0,0,1-2.55-2.55h0V40.34a2.55,2.55,0,0,1,2.55-2.55h0a2.55,2.55,0,0,1,2.55,2.55h0v93.44a2.55,2.55,0,0,1-2.55,2.55Z" transform="translate(0.04)" fill="#5ff9f5"/><path d="M55.38,158.66a2.55,2.55,0,0,1-2.55-2.5V18a2.55,2.55,0,0,1,2.55-2.55h0A2.55,2.55,0,0,1,57.93,18h0V156.1a2.55,2.55,0,0,1-2.54,2.56h0Z" transform="translate(0.04)" fill="#5ff9f5"/><path d="M65.94,151.68a2.55,2.55,0,0,1-2.55-2.52V25a2.55,2.55,0,0,1,2.55-2.55h0A2.55,2.55,0,0,1,68.51,25V149.1A2.55,2.55,0,0,1,66,151.68h0Z" transform="translate(0.04)" fill="#5ff9f5"/><path d="M76.51,166.1A2.55,2.55,0,0,1,74,163.55h0v-153A2.55,2.55,0,0,1,76.49,8h0a2.55,2.55,0,0,1,2.55,2.55h0V163.59A2.55,2.55,0,0,1,76.51,166.1Z" transform="translate(0.04)" fill="#5ff9f5"/><path d="M87.07,174.1a2.55,2.55,0,0,1-2.56-2.54h0V2.55A2.55,2.55,0,0,1,87.06,0h0a2.55,2.55,0,0,1,2.55,2.55h0v169A2.56,2.56,0,0,1,87.07,174.1Z" transform="translate(0.04)" fill="#5ff9f5"/><circle cx="87.28" cy="87.04" r="45.93" fill="#09091e"/><path d="M107.31,61.16a2.57,2.57,0,0,0-2.87-2.23,2.31,2.31,0,0,0-.52.12L76.51,68.86a2.58,2.58,0,0,0-1.7,2.4V96.49a8.13,8.13,0,1,0,4.54,10.57,8.21,8.21,0,0,0,.58-2.77,1.13,1.13,0,0,0,0-.26V81.86l22.28-8V86.67a8.11,8.11,0,1,0-6,15h0a8.13,8.13,0,0,0,11.13-7.28,1.13,1.13,0,0,0,0-.26V61.48A1.71,1.71,0,0,0,107.31,61.16Zm-5.09,7.3-22.28,8V73.07l22.28-8Z" transform="translate(0.04)" fill="#fff"/></g></g></g></g></svg>